<svg xmlns="http://www.w3.org/2000/svg" xmlns:xlink="http://www.w3.org/1999/xlink" width="1923" height="443" viewBox="0 0 1923 443"><defs><style>.a{stroke:#3b3b3b;stroke-miterlimit:10;stroke-width:3px;fill:url(#a);}.b,.d,.e,.f,.j{fill:#fff;}.b{font-size:22.5px;}.b,.e{font-family:SegoeUI-Semibold, Segoe UI;font-weight:600;}.c,.h{fill:none;stroke:#d8d8d8;}.c{stroke-width:2px;}.d,.g{font-size:15px;}.d{font-family:SegoeUI, Segoe UI;}.d,.e{letter-spacing:0.008em;}.e{font-size:20px;}.g{fill:#fe0000;font-family:SegoeUI-Bold, Segoe UI;font-weight:700;}.i{fill:#3cf;}.j{fill-rule:evenodd;}.k{fill:#3c5a99;}.l{fill:url(#b);}.m{fill:red;}.n{fill:#ffc8c8;}</style><linearGradient id="a" x1="0.5" y1="1" x2="0.5" gradientUnits="objectBoundingBox"><stop offset="0" stop-color="#5e0004"/><stop offset="1" stop-color="#ab0007"/></linearGradient><linearGradient id="b" x1="0.096" y1="0.844" x2="1.336" y2="-0.212" gradientUnits="objectBoundingBox"><stop offset="0.001" stop-color="#fbe18a"/><stop offset="0.209" stop-color="#fcbb45"/><stop offset="0.376" stop-color="#f75274"/><stop offset="0.524" stop-color="#d53692"/><stop offset="0.739" stop-color="#8f39ce"/><stop offset="1" stop-color="#5b4fe9"/></linearGradient></defs><g transform="translate(1.5 -3667)"><rect class="a" width="1920" height="440" transform="translate(0 3668.5)"/><g transform="translate(28)"><text class="b" transform="translate(1452 4056)"><tspan x="0" y="0">Offers</tspan></text><text class="b" transform="translate(1164 4056)"><tspan x="0" y="0">Ramadan Deals</tspan></text><text class="b" transform="translate(886 4056)"><tspan x="0" y="0">My orders</tspan></text><text class="b" transform="translate(591 4056)"><tspan x="0" y="0">Restaurants</tspan></text><text class="b" transform="translate(349 4056)"><tspan x="0" y="0">Home</tspan></text></g><line class="c" x2="1318" transform="translate(301.5 4010.5)"/><text class="d" transform="translate(707 3955)"><tspan x="0" y="0">snaxa@anything.com</tspan></text><text class="e" transform="translate(672 3957)"><tspan x="0" y="0">@</tspan></text><text class="e" transform="translate(672 3911)"><tspan x="0" y="0">T</tspan></text><text class="d" transform="translate(707 3908)"><tspan x="0" y="0">022 4455 5566</tspan></text><text class="d" transform="translate(672 3814)"><tspan x="0" y="0">It is a long established fact that a reader will</tspan><tspan x="0" y="20">be distracted by the readable content of a</tspan><tspan x="0" y="40">page when looking for its layout.</tspan></text><text class="e" transform="translate(672 3785)"><tspan x="0" y="0">Estd. 2019</tspan></text><rect class="f" width="159" height="46" rx="8" transform="translate(1318 3897)"/><text class="g" transform="translate(1380 3926)"><tspan x="0" y="0">Send</tspan></text><text class="d" transform="translate(1144 3832)"><tspan x="0" y="0">Enter your e-mail Address</tspan></text><text class="e" transform="translate(1215 3785)"><tspan x="0" y="0">Stay up to date on the latest fron Snaxa</tspan></text><g transform="translate(1141.438 3763.875)"><path class="f" d="M24.219,6.25a3.125,3.125,0,1,1-3.125-3.125A3.125,3.125,0,0,1,24.219,6.25Z"/><path class="f" d="M18.7,9.932l-6.2,4.131L3.906,8.335V6.25L12.5,11.978l4.937-3.291a4.39,4.39,0,0,1-.059-4.78H3.647A2.09,2.09,0,0,0,1.563,5.991V19.014A2.09,2.09,0,0,0,3.647,21.1h17.71a2.09,2.09,0,0,0,2.085-2.085V9.966A4.4,4.4,0,0,1,18.7,9.932Z"/></g><line class="h" y2="200" transform="translate(642.5 3764.5)"/><g transform="translate(-16.536 -517)"><g transform="translate(357.446 4347)"><g transform="translate(0 0)"><path class="i" d="M67.807,498.343A18.023,18.023,0,1,1,85.83,480.32,18.043,18.043,0,0,1,67.807,498.343Z" transform="translate(-49.784 -462.297)"/></g><g transform="translate(7.453 9.372)"><path class="f" d="M82,478.562a8.619,8.619,0,0,1-2.122.606c.342-.057.846-.676,1.047-.926a3.907,3.907,0,0,0,.707-1.287c.018-.036.032-.083,0-.11a.119.119,0,0,0-.112.009,10.837,10.837,0,0,1-2.521.965.168.168,0,0,1-.174-.046,2.041,2.041,0,0,0-.221-.225,4.462,4.462,0,0,0-1.221-.748,4.251,4.251,0,0,0-1.873-.3,4.476,4.476,0,0,0-1.776.5A4.587,4.587,0,0,0,72.3,478.17a4.414,4.414,0,0,0-.856,1.714,4.653,4.653,0,0,0-.046,1.81c.014.1.005.115-.087.1a13.461,13.461,0,0,1-8.661-4.409c-.1-.115-.156-.115-.239.009a4.392,4.392,0,0,0,.749,5.189c.17.161.344.322.532.468a4.4,4.4,0,0,1-1.671-.468c-.1-.064-.152-.027-.16.087a2.617,2.617,0,0,0,.027.5,4.441,4.441,0,0,0,2.737,3.54,2.571,2.571,0,0,0,.555.17,4.927,4.927,0,0,1-1.639.051c-.12-.023-.165.037-.12.152a4.611,4.611,0,0,0,3.444,2.884c.157.027.312.027.469.064-.009.014-.018.014-.028.028A5.458,5.458,0,0,1,64.95,491.3a8.427,8.427,0,0,1-3.573.457c-.192-.028-.232-.026-.285,0s-.007.079.055.128c.243.161.491.3.744.441a11.8,11.8,0,0,0,2.388.956A12.719,12.719,0,0,0,76.628,490.4c2.531-2.514,3.417-5.982,3.417-9.453,0-.135.16-.211.256-.282a8.336,8.336,0,0,0,1.673-1.748.507.507,0,0,0,.1-.335v-.018C82.077,478.508,82.084,478.524,82,478.562Z" transform="translate(-61.07 -476.489)"/><g transform="translate(6.239 17.229)"><path class="j" d="M70.518,502.578Z" transform="translate(-70.518 -502.578)"/></g><g transform="translate(6.079 17.229)"><path class="j" d="M70.435,502.578c-.028,0-.347,0,0,0Z" transform="translate(-70.275 -502.578)"/></g><g transform="translate(6.946 17.232)"><path class="j" d="M71.589,502.6c0-.035.372,0,0,0C71.589,502.579,71.635,502.6,71.589,502.6Z" transform="translate(-71.589 -502.582)"/></g><g transform="translate(14.29 0.026)"><path class="j" d="M82.8,476.528a.076.076,0,0,1-.087,0Z" transform="translate(-82.709 -476.528)"/></g></g></g><g transform="translate(315.536 4347.661)"><g transform="translate(0 0)"><path class="k" d="M149.344,498.343a18.023,18.023,0,1,1,18.024-18.023A18.044,18.044,0,0,1,149.344,498.343Z" transform="translate(-131.32 -462.297)"/></g><g transform="translate(12.986 7.22)"><path class="j" d="M153.2,484.119v10.446a.272.272,0,0,0,.272.272h3.879a.272.272,0,0,0,.272-.272V483.949h2.813a.272.272,0,0,0,.271-.249l.271-3.2a.272.272,0,0,0-.271-.3h-3.083v-2.269a.963.963,0,0,1,.963-.963h2.168a.272.272,0,0,0,.272-.271v-3.2a.272.272,0,0,0-.272-.272h-3.662a3.891,3.891,0,0,0-3.892,3.892v3.083h-1.939a.272.272,0,0,0-.272.272v3.2a.272.272,0,0,0,.272.272H153.2Z" transform="translate(-150.984 -473.231)"/></g></g><g transform="translate(399.458 4347.452)"><circle class="f" cx="15.684" cy="15.684" r="15.684" transform="translate(2.208 2.07)"/><path class="l" d="M231.308,498.792a17.906,17.906,0,1,1,17.906-17.906A17.926,17.926,0,0,1,231.308,498.792Zm6.038-25.171a1.325,1.325,0,1,0,1.325,1.325A1.325,1.325,0,0,0,237.346,473.622Zm-5.891,1.7a5.566,5.566,0,1,0,5.566,5.566A5.572,5.572,0,0,0,231.456,475.321Zm0,9.132a3.565,3.565,0,1,1,3.565-3.565A3.569,3.569,0,0,1,231.456,484.452Zm11.231-8.191a6.789,6.789,0,0,0-6.789-6.789h-8.96a6.789,6.789,0,0,0-6.789,6.789v8.961a6.789,6.789,0,0,0,6.789,6.789h8.96a6.789,6.789,0,0,0,6.789-6.789Zm-2.126,8.961a4.662,4.662,0,0,1-4.663,4.662h-8.96a4.662,4.662,0,0,1-4.662-4.662v-8.961a4.662,4.662,0,0,1,4.662-4.662h8.96a4.662,4.662,0,0,1,4.663,4.662Z" transform="translate(-213.403 -462.981)"/></g><g transform="translate(441.037 4347.076)"><g transform="translate(0 0)"><path class="m" d="M149.359,628.4A17.992,17.992,0,1,1,167.352,610.4,18.013,18.013,0,0,1,149.359,628.4Z" transform="translate(-131.366 -592.412)"/></g><g transform="translate(9.769 8.43)"><path class="f" d="M155.758,620.513c-1.287-.1-1.828-.738-2.838-1.35-.45,2.36-.98,4.64-2.235,6.2a.636.636,0,0,1-1.132-.356c-.19-3.76,1.109-6.744,1.747-9.892-1.212-2.039.145-6.144,2.7-5.133,3.145,1.244-2.723,7.584,1.216,8.375,4.112.826,5.791-7.136,3.24-9.726-3.685-3.739-10.726-.085-9.86,5.268.164,1.017,1.018,1.484.909,2.49a.9.9,0,0,1-1.28.719c-1.632-.763-2.138-2.433-2.06-4.559.146-4.059,3.647-6.9,7.159-7.294,4.441-.5,8.61,1.631,9.185,5.809.648,4.715-2,9.822-6.754,9.455Z" transform="translate(-146.159 -605.178)"/></g></g></g><g transform="translate(304 3776)"><g transform="translate(0 0)"><path class="f" d="M3.9,16.983A12.85,12.85,0,0,0,7.73,19.264a11.374,11.374,0,0,0,4.132.862,6.881,6.881,0,0,0,3.574-.811,2.419,2.419,0,0,0,1.342-2.129,1.691,1.691,0,0,0-.609-1.368,4.052,4.052,0,0,0-1.977-.71l-2.382-.3Q6.437,14.1,3.928,12.345A5.489,5.489,0,0,1,1.42,7.606,6.423,6.423,0,0,1,4.385,2.054,13.893,13.893,0,0,1,12.42,0,22.8,22.8,0,0,1,18.73.836a15.688,15.688,0,0,1,5.043,2.408l-4,4.005a8.556,8.556,0,0,0-2.865-1.773,9.408,9.408,0,0,0-3.422-.658,5.347,5.347,0,0,0-3.017.761A2.29,2.29,0,0,0,9.326,7.556a1.554,1.554,0,0,0,.253.888,1.993,1.993,0,0,0,.836.658,7.046,7.046,0,0,0,1.572.482q.988.2,2.459.354,1.874.2,3.118.354a14.88,14.88,0,0,1,2.078.38,7.831,7.831,0,0,1,1.394.506,10.814,10.814,0,0,1,1.166.684,5.075,5.075,0,0,1,1.75,2.155,7.2,7.2,0,0,1,.635,3.017,6.929,6.929,0,0,1-.836,3.4,7.451,7.451,0,0,1-2.408,2.586,11.873,11.873,0,0,1-3.776,1.623,20.184,20.184,0,0,1-4.943.558,24.771,24.771,0,0,1-3.448-.227,17.737,17.737,0,0,1-3.143-.735,15.738,15.738,0,0,1-2.991-1.368A29.281,29.281,0,0,1,0,20.785Z" transform="translate(0 0)"/><path class="f" d="M152.3,2.205h8.262V5.4a24.356,24.356,0,0,1,5.069-2.788A13,13,0,0,1,170.2,1.8q8.366,0,8.365,10.239V25.878h-9.175a29.415,29.415,0,0,0,.785-4.612,57.088,57.088,0,0,0,.279-5.779l-.051-.862q-.1-6.895-4.563-6.894a5.494,5.494,0,0,0-2.586.735,10.1,10.1,0,0,0-2.687,2.2V25.878H152.3V2.205Z" transform="translate(-122.19 -1.444)"/><path class="f" d="M333.387,24.659a6.982,6.982,0,0,0,.33-1.192c.051-.32.109-.785.178-1.394a19.27,19.27,0,0,1-2.129,1.394,14.275,14.275,0,0,1-1.926.888,8.914,8.914,0,0,1-1.951.482,17.709,17.709,0,0,1-2.2.127,11.84,11.84,0,0,1-7.2-1.926,6.316,6.316,0,0,1-2.586-5.374,6.688,6.688,0,0,1,2.865-5.727q2.865-2.079,8.035-2.078c.54,0,1.048.018,1.52.051s.981.085,1.52.152,1.149.17,1.825.3,1.5.3,2.483.506a5.6,5.6,0,0,0-1.572-4.334,5.9,5.9,0,0,0-4.158-1.445,8.331,8.331,0,0,0-5.17,1.876l-1.572,1.166-3.853-3.8a27.573,27.573,0,0,1,6.006-3.041A19.4,19.4,0,0,1,330.243.28a22.234,22.234,0,0,1,4.943.506,10.024,10.024,0,0,1,3.75,1.647,7.586,7.586,0,0,1,2.382,2.914,9.928,9.928,0,0,1,.836,4.259V24.661h-8.768Zm.66-9.784a13.329,13.329,0,0,0-2.307-1.014,7.833,7.833,0,0,0-2.307-.3,6.531,6.531,0,0,0-3.827,1.014,3.091,3.091,0,0,0-1.445,2.635,3.216,3.216,0,0,0,1.166,2.535,4.245,4.245,0,0,0,2.89,1.014,6.533,6.533,0,0,0,2.256-.38,5.594,5.594,0,0,0,1.851-1.115,5.188,5.188,0,0,0,1.267-1.773,5.933,5.933,0,0,0,.457-2.408v-.2Z" transform="translate(-253.445 -0.225)"/><path class="f" d="M676.2,24.635a6.982,6.982,0,0,0,.33-1.192c.051-.32.109-.785.178-1.394a19.276,19.276,0,0,1-2.129,1.394,14.269,14.269,0,0,1-1.926.888,8.912,8.912,0,0,1-1.951.482,17.711,17.711,0,0,1-2.2.127,11.84,11.84,0,0,1-7.2-1.926,6.316,6.316,0,0,1-2.586-5.374,6.688,6.688,0,0,1,2.865-5.727q2.865-2.079,8.035-2.078c.54,0,1.048.018,1.52.051s.981.085,1.52.152,1.149.17,1.825.3,1.5.3,2.483.506a5.6,5.6,0,0,0-1.572-4.334,5.9,5.9,0,0,0-4.158-1.445,8.331,8.331,0,0,0-5.17,1.876l-1.572,1.166-3.853-3.8a27.492,27.492,0,0,1,6.008-3.047A19.4,19.4,0,0,1,673.055.25,22.234,22.234,0,0,1,678,.756a10.023,10.023,0,0,1,3.75,1.647,7.585,7.585,0,0,1,2.382,2.914,9.927,9.927,0,0,1,.836,4.259V24.631H676.2Zm.658-9.784a13.329,13.329,0,0,0-2.307-1.014,7.833,7.833,0,0,0-2.307-.3,6.531,6.531,0,0,0-3.828,1.014,3.091,3.091,0,0,0-1.445,2.635,3.216,3.216,0,0,0,1.167,2.535,4.245,4.245,0,0,0,2.89,1.014,6.533,6.533,0,0,0,2.256-.38,5.6,5.6,0,0,0,1.85-1.115,5.188,5.188,0,0,0,1.267-1.773,5.932,5.932,0,0,0,.457-2.408Z" transform="translate(-528.48 -0.201)"/></g><g transform="translate(95.022 0.761)"><path class="f" d="M486.207,21.339l4.867-5.474L480.934,3.85H489.5l5.83,7.351,4.106,4.207-4.411,4.612-3.041,3.7-3.143,3.8H480.63Z" transform="translate(-480.63 -3.85)"/><path class="n" d="M549.862,21.339l-4.868-5.474L555.133,3.85h-8.566l-5.83,7.351-4.106,4.207,4.411,4.612,3.041,3.7,3.143,3.8h8.213Z" transform="translate(-525.559 -3.85)"/></g></g><line class="c" x2="437" transform="translate(1143.5 3843.5)"/></g></svg>