<svg xmlns="http://www.w3.org/2000/svg" xmlns:xlink="http://www.w3.org/1999/xlink" width="995.055" height="1383.174" viewBox="0 0 995.055 1383.174"><defs><style>.a,.i{fill:none;}.b{clip-path:url(#a);}.c,.f{fill:#a3a3a3;font-family:SegoeUI, Segoe UI;}.c{font-size:22px;}.d{fill:#9d9d9c;font-size:25px;font-family:SegoeUI-Semibold, Segoe UI;font-weight:600;}.e{fill:#ffb300;}.f{font-size:21px;}.g{fill:#0e0e0e;font-size:26px;}.g,.h{font-family:SegoeUI-Bold, Segoe UI;font-weight:700;}.h{fill:#ed1b24;font-size:50px;}.i{stroke:#707070;stroke-width:2px;opacity:0.51;}.j{stroke:none;}</style><clipPath id="a"><rect class="a" width="995.055" height="1383.174"/></clipPath></defs><g class="b"><g transform="translate(-301 -731.523)"><text class="c" transform="translate(1194.848 946.697)"><tspan x="0" y="0">05:00pm</tspan></text><text class="d" transform="translate(459.966 821.111)"><tspan x="0" y="27">Lorem ipsum dolor sit amet, consectetuer adipiscing elit, sed diam </tspan><tspan x="0" y="49">nonummy nibh euismod tincidunt ut laoreet dolore magna aliquam erat </tspan><tspan x="0" y="71">volutpat. Ut wisi enim ad minim veniam, quis nostrud minim veniam, </tspan><tspan x="0" y="93">quis nostrud minim veniam, quis nostrud mmc</tspan></text><path class="e" d="M571.426,326.7l-1.95,3.956-4.367.637a.957.957,0,0,0-.529,1.631l3.158,3.078-.746,4.349a.956.956,0,0,0,1.387,1.006l3.906-2.052,3.906,2.052a.955.955,0,0,0,1.385-1.006l-.746-4.349,3.159-3.078a.956.956,0,0,0-.529-1.631l-4.367-.637-1.952-3.956a.957.957,0,0,0-1.715,0Z" transform="translate(567.151 419.353)"/><path class="e" d="M589.966,326.7l-1.95,3.956-4.367.637a.957.957,0,0,0-.529,1.631l3.159,3.078-.745,4.349a.956.956,0,0,0,1.387,1.006l3.906-2.052,3.906,2.052a.955.955,0,0,0,1.385-1.006l-.745-4.349,3.158-3.078A.956.956,0,0,0,598,331.3l-4.367-.637-1.952-3.956a.957.957,0,0,0-1.716,0Z" transform="translate(585.767 419.353)"/><path class="e" d="M608.461,326.7l-1.95,3.956-4.367.637a.957.957,0,0,0-.529,1.631l3.159,3.078-.745,4.349a.956.956,0,0,0,1.387,1.006l3.906-2.052,3.906,2.052a.955.955,0,0,0,1.385-1.006l-.745-4.349,3.158-3.078a.956.956,0,0,0-.529-1.631l-4.367-.637-1.952-3.956a.957.957,0,0,0-1.716,0Z" transform="translate(604.338 419.353)"/><path class="e" d="M627.091,326.7l-1.95,3.956-4.367.637a.957.957,0,0,0-.529,1.631l3.159,3.078-.745,4.349a.956.956,0,0,0,1.387,1.006l3.906-2.052,3.906,2.052a.955.955,0,0,0,1.385-1.006l-.745-4.349,3.158-3.078a.956.956,0,0,0-.529-1.631l-4.367-.637-1.952-3.956a.957.957,0,0,0-1.716,0Z" transform="translate(623.045 419.353)"/><path class="e" d="M645.586,326.7l-1.95,3.956-4.367.637a.957.957,0,0,0-.529,1.631l3.159,3.078-.745,4.349a.956.956,0,0,0,1.387,1.006l3.906-2.052,3.906,2.052a.955.955,0,0,0,1.385-1.006l-.745-4.349,3.158-3.078a.956.956,0,0,0-.529-1.631l-4.367-.637L647.3,326.7a.957.957,0,0,0-1.716,0Z" transform="translate(641.616 419.353)"/><text class="f" transform="translate(459.647 800.658)"><tspan x="0" y="0">5/6/2020</tspan></text><text class="g" transform="translate(458 771)"><tspan x="0" y="0">Parham Zaidi</tspan></text><text class="h" transform="translate(314 826)"><tspan x="0" y="0">PAR</tspan></text><g class="i" transform="translate(301 745)"><ellipse class="j" cx="61.5" cy="62" rx="61.5" ry="62"/><ellipse class="a" cx="61.5" cy="62" rx="60.5" ry="61"/></g></g><g transform="translate(-301 -444.523)"><text class="c" transform="translate(1194.848 946.697)"><tspan x="0" y="0">05:00pm</tspan></text><text class="d" transform="translate(459.966 821.111)"><tspan x="0" y="27">Lorem ipsum dolor sit amet, consectetuer adipiscing elit, sed diam </tspan><tspan x="0" y="49">nonummy nibh euismod tincidunt ut laoreet dolore magna aliquam erat </tspan><tspan x="0" y="71">volutpat. Ut wisi enim ad minim veniam, quis nostrud minim veniam, </tspan><tspan x="0" y="93">quis nostrud minim veniam, quis nostrud mmc</tspan></text><path class="e" d="M571.426,326.7l-1.95,3.956-4.367.637a.957.957,0,0,0-.529,1.631l3.158,3.078-.746,4.349a.956.956,0,0,0,1.387,1.006l3.906-2.052,3.906,2.052a.955.955,0,0,0,1.385-1.006l-.746-4.349,3.159-3.078a.956.956,0,0,0-.529-1.631l-4.367-.637-1.952-3.956a.957.957,0,0,0-1.715,0Z" transform="translate(567.151 419.353)"/><path class="e" d="M589.966,326.7l-1.95,3.956-4.367.637a.957.957,0,0,0-.529,1.631l3.159,3.078-.745,4.349a.956.956,0,0,0,1.387,1.006l3.906-2.052,3.906,2.052a.955.955,0,0,0,1.385-1.006l-.745-4.349,3.158-3.078A.956.956,0,0,0,598,331.3l-4.367-.637-1.952-3.956a.957.957,0,0,0-1.716,0Z" transform="translate(585.767 419.353)"/><path class="e" d="M608.461,326.7l-1.95,3.956-4.367.637a.957.957,0,0,0-.529,1.631l3.159,3.078-.745,4.349a.956.956,0,0,0,1.387,1.006l3.906-2.052,3.906,2.052a.955.955,0,0,0,1.385-1.006l-.745-4.349,3.158-3.078a.956.956,0,0,0-.529-1.631l-4.367-.637-1.952-3.956a.957.957,0,0,0-1.716,0Z" transform="translate(604.338 419.353)"/><path class="e" d="M627.091,326.7l-1.95,3.956-4.367.637a.957.957,0,0,0-.529,1.631l3.159,3.078-.745,4.349a.956.956,0,0,0,1.387,1.006l3.906-2.052,3.906,2.052a.955.955,0,0,0,1.385-1.006l-.745-4.349,3.158-3.078a.956.956,0,0,0-.529-1.631l-4.367-.637-1.952-3.956a.957.957,0,0,0-1.716,0Z" transform="translate(623.045 419.353)"/><path class="e" d="M645.586,326.7l-1.95,3.956-4.367.637a.957.957,0,0,0-.529,1.631l3.159,3.078-.745,4.349a.956.956,0,0,0,1.387,1.006l3.906-2.052,3.906,2.052a.955.955,0,0,0,1.385-1.006l-.745-4.349,3.158-3.078a.956.956,0,0,0-.529-1.631l-4.367-.637L647.3,326.7a.957.957,0,0,0-1.716,0Z" transform="translate(641.616 419.353)"/><text class="f" transform="translate(459.647 800.658)"><tspan x="0" y="0">5/6/2020</tspan></text><text class="g" transform="translate(458 771)"><tspan x="0" y="0">Parham Zaidi</tspan></text><text class="h" transform="translate(314 826)"><tspan x="0" y="0">PAR</tspan></text><g class="i" transform="translate(301 745)"><ellipse class="j" cx="61.5" cy="62" rx="61.5" ry="62"/><ellipse class="a" cx="61.5" cy="62" rx="60.5" ry="61"/></g></g><g transform="translate(-301 -157.523)"><text class="c" transform="translate(1194.848 946.697)"><tspan x="0" y="0">05:00pm</tspan></text><text class="d" transform="translate(459.966 821.111)"><tspan x="0" y="27">Lorem ipsum dolor sit amet, consectetuer adipiscing elit, sed diam </tspan><tspan x="0" y="49">nonummy nibh euismod tincidunt ut laoreet dolore magna aliquam erat </tspan><tspan x="0" y="71">volutpat. Ut wisi enim ad minim veniam, quis nostrud minim veniam, </tspan><tspan x="0" y="93">quis nostrud minim veniam, quis nostrud mmc</tspan></text><path class="e" d="M571.426,326.7l-1.95,3.956-4.367.637a.957.957,0,0,0-.529,1.631l3.158,3.078-.746,4.349a.956.956,0,0,0,1.387,1.006l3.906-2.052,3.906,2.052a.955.955,0,0,0,1.385-1.006l-.746-4.349,3.159-3.078a.956.956,0,0,0-.529-1.631l-4.367-.637-1.952-3.956a.957.957,0,0,0-1.715,0Z" transform="translate(567.151 419.353)"/><path class="e" d="M589.966,326.7l-1.95,3.956-4.367.637a.957.957,0,0,0-.529,1.631l3.159,3.078-.745,4.349a.956.956,0,0,0,1.387,1.006l3.906-2.052,3.906,2.052a.955.955,0,0,0,1.385-1.006l-.745-4.349,3.158-3.078A.956.956,0,0,0,598,331.3l-4.367-.637-1.952-3.956a.957.957,0,0,0-1.716,0Z" transform="translate(585.767 419.353)"/><path class="e" d="M608.461,326.7l-1.95,3.956-4.367.637a.957.957,0,0,0-.529,1.631l3.159,3.078-.745,4.349a.956.956,0,0,0,1.387,1.006l3.906-2.052,3.906,2.052a.955.955,0,0,0,1.385-1.006l-.745-4.349,3.158-3.078a.956.956,0,0,0-.529-1.631l-4.367-.637-1.952-3.956a.957.957,0,0,0-1.716,0Z" transform="translate(604.338 419.353)"/><path class="e" d="M627.091,326.7l-1.95,3.956-4.367.637a.957.957,0,0,0-.529,1.631l3.159,3.078-.745,4.349a.956.956,0,0,0,1.387,1.006l3.906-2.052,3.906,2.052a.955.955,0,0,0,1.385-1.006l-.745-4.349,3.158-3.078a.956.956,0,0,0-.529-1.631l-4.367-.637-1.952-3.956a.957.957,0,0,0-1.716,0Z" transform="translate(623.045 419.353)"/><path class="e" d="M645.586,326.7l-1.95,3.956-4.367.637a.957.957,0,0,0-.529,1.631l3.159,3.078-.745,4.349a.956.956,0,0,0,1.387,1.006l3.906-2.052,3.906,2.052a.955.955,0,0,0,1.385-1.006l-.745-4.349,3.158-3.078a.956.956,0,0,0-.529-1.631l-4.367-.637L647.3,326.7a.957.957,0,0,0-1.716,0Z" transform="translate(641.616 419.353)"/><text class="f" transform="translate(459.647 800.658)"><tspan x="0" y="0">5/6/2020</tspan></text><text class="g" transform="translate(458 771)"><tspan x="0" y="0">Parham Zaidi</tspan></text><text class="h" transform="translate(314 826)"><tspan x="0" y="0">PAR</tspan></text><g class="i" transform="translate(301 745)"><ellipse class="j" cx="61.5" cy="62" rx="61.5" ry="62"/><ellipse class="a" cx="61.5" cy="62" rx="60.5" ry="61"/></g></g><g transform="translate(-301 129.477)"><text class="c" transform="translate(1194.848 946.697)"><tspan x="0" y="0">05:00pm</tspan></text><text class="d" transform="translate(459.966 821.111)"><tspan x="0" y="27">Lorem ipsum dolor sit amet, consectetuer adipiscing elit, sed diam </tspan><tspan x="0" y="49">nonummy nibh euismod tincidunt ut laoreet dolore magna aliquam erat </tspan><tspan x="0" y="71">volutpat. Ut wisi enim ad minim veniam, quis nostrud minim veniam, </tspan><tspan x="0" y="93">quis nostrud minim veniam, quis nostrud mmc</tspan></text><path class="e" d="M571.426,326.7l-1.95,3.956-4.367.637a.957.957,0,0,0-.529,1.631l3.158,3.078-.746,4.349a.956.956,0,0,0,1.387,1.006l3.906-2.052,3.906,2.052a.955.955,0,0,0,1.385-1.006l-.746-4.349,3.159-3.078a.956.956,0,0,0-.529-1.631l-4.367-.637-1.952-3.956a.957.957,0,0,0-1.715,0Z" transform="translate(567.151 419.353)"/><path class="e" d="M589.966,326.7l-1.95,3.956-4.367.637a.957.957,0,0,0-.529,1.631l3.159,3.078-.745,4.349a.956.956,0,0,0,1.387,1.006l3.906-2.052,3.906,2.052a.955.955,0,0,0,1.385-1.006l-.745-4.349,3.158-3.078A.956.956,0,0,0,598,331.3l-4.367-.637-1.952-3.956a.957.957,0,0,0-1.716,0Z" transform="translate(585.767 419.353)"/><path class="e" d="M608.461,326.7l-1.95,3.956-4.367.637a.957.957,0,0,0-.529,1.631l3.159,3.078-.745,4.349a.956.956,0,0,0,1.387,1.006l3.906-2.052,3.906,2.052a.955.955,0,0,0,1.385-1.006l-.745-4.349,3.158-3.078a.956.956,0,0,0-.529-1.631l-4.367-.637-1.952-3.956a.957.957,0,0,0-1.716,0Z" transform="translate(604.338 419.353)"/><path class="e" d="M627.091,326.7l-1.95,3.956-4.367.637a.957.957,0,0,0-.529,1.631l3.159,3.078-.745,4.349a.956.956,0,0,0,1.387,1.006l3.906-2.052,3.906,2.052a.955.955,0,0,0,1.385-1.006l-.745-4.349,3.158-3.078a.956.956,0,0,0-.529-1.631l-4.367-.637-1.952-3.956a.957.957,0,0,0-1.716,0Z" transform="translate(623.045 419.353)"/><path class="e" d="M645.586,326.7l-1.95,3.956-4.367.637a.957.957,0,0,0-.529,1.631l3.159,3.078-.745,4.349a.956.956,0,0,0,1.387,1.006l3.906-2.052,3.906,2.052a.955.955,0,0,0,1.385-1.006l-.745-4.349,3.158-3.078a.956.956,0,0,0-.529-1.631l-4.367-.637L647.3,326.7a.957.957,0,0,0-1.716,0Z" transform="translate(641.616 419.353)"/><text class="f" transform="translate(459.647 800.658)"><tspan x="0" y="0">5/6/2020</tspan></text><text class="g" transform="translate(458 771)"><tspan x="0" y="0">Parham Zaidi</tspan></text><text class="h" transform="translate(314 826)"><tspan x="0" y="0">PAR</tspan></text><g class="i" transform="translate(301 745)"><ellipse class="j" cx="61.5" cy="62" rx="61.5" ry="62"/><ellipse class="a" cx="61.5" cy="62" rx="60.5" ry="61"/></g></g><g transform="translate(-301 416.477)"><text class="c" transform="translate(1194.848 946.697)"><tspan x="0" y="0">05:00pm</tspan></text><text class="d" transform="translate(459.966 821.111)"><tspan x="0" y="27">Lorem ipsum dolor sit amet, consectetuer adipiscing elit, sed diam </tspan><tspan x="0" y="49">nonummy nibh euismod tincidunt ut laoreet dolore magna aliquam erat </tspan><tspan x="0" y="71">volutpat. Ut wisi enim ad minim veniam, quis nostrud minim veniam, </tspan><tspan x="0" y="93">quis nostrud minim veniam, quis nostrud mmc</tspan></text><path class="e" d="M571.426,326.7l-1.95,3.956-4.367.637a.957.957,0,0,0-.529,1.631l3.158,3.078-.746,4.349a.956.956,0,0,0,1.387,1.006l3.906-2.052,3.906,2.052a.955.955,0,0,0,1.385-1.006l-.746-4.349,3.159-3.078a.956.956,0,0,0-.529-1.631l-4.367-.637-1.952-3.956a.957.957,0,0,0-1.715,0Z" transform="translate(567.151 419.353)"/><path class="e" d="M589.966,326.7l-1.95,3.956-4.367.637a.957.957,0,0,0-.529,1.631l3.159,3.078-.745,4.349a.956.956,0,0,0,1.387,1.006l3.906-2.052,3.906,2.052a.955.955,0,0,0,1.385-1.006l-.745-4.349,3.158-3.078A.956.956,0,0,0,598,331.3l-4.367-.637-1.952-3.956a.957.957,0,0,0-1.716,0Z" transform="translate(585.767 419.353)"/><path class="e" d="M608.461,326.7l-1.95,3.956-4.367.637a.957.957,0,0,0-.529,1.631l3.159,3.078-.745,4.349a.956.956,0,0,0,1.387,1.006l3.906-2.052,3.906,2.052a.955.955,0,0,0,1.385-1.006l-.745-4.349,3.158-3.078a.956.956,0,0,0-.529-1.631l-4.367-.637-1.952-3.956a.957.957,0,0,0-1.716,0Z" transform="translate(604.338 419.353)"/><path class="e" d="M627.091,326.7l-1.95,3.956-4.367.637a.957.957,0,0,0-.529,1.631l3.159,3.078-.745,4.349a.956.956,0,0,0,1.387,1.006l3.906-2.052,3.906,2.052a.955.955,0,0,0,1.385-1.006l-.745-4.349,3.158-3.078a.956.956,0,0,0-.529-1.631l-4.367-.637-1.952-3.956a.957.957,0,0,0-1.716,0Z" transform="translate(623.045 419.353)"/><path class="e" d="M645.586,326.7l-1.95,3.956-4.367.637a.957.957,0,0,0-.529,1.631l3.159,3.078-.745,4.349a.956.956,0,0,0,1.387,1.006l3.906-2.052,3.906,2.052a.955.955,0,0,0,1.385-1.006l-.745-4.349,3.158-3.078a.956.956,0,0,0-.529-1.631l-4.367-.637L647.3,326.7a.957.957,0,0,0-1.716,0Z" transform="translate(641.616 419.353)"/><text class="f" transform="translate(459.647 800.658)"><tspan x="0" y="0">5/6/2020</tspan></text><text class="g" transform="translate(458 771)"><tspan x="0" y="0">Parham Zaidi</tspan></text><text class="h" transform="translate(314 826)"><tspan x="0" y="0">PAR</tspan></text><g class="i" transform="translate(301 745)"><ellipse class="j" cx="61.5" cy="62" rx="61.5" ry="62"/><ellipse class="a" cx="61.5" cy="62" rx="60.5" ry="61"/></g></g></g></svg>