<svg xmlns="http://www.w3.org/2000/svg" width="1309" height="592" viewBox="0 0 1309 592"><defs><style>.a{font-size:20px;}.a,.e{font-family:SegoeUI, Segoe UI;}.a,.b,.e{letter-spacing:0.008em;}.b{fill:#ed1b24;font-size:44px;font-family:SegoeUI-Semibold, Segoe UI;font-weight:600;}.c,.g{fill:none;}.c{stroke:#707070;stroke-width:2px;}.d{fill:#3b3b3b;}.e{font-size:23px;}.f{stroke:none;}</style></defs><g transform="translate(-306 -1096)"><text class="a" transform="translate(1466 1629)"><tspan x="-148.137" y="0">It is a long established fact that a</tspan><tspan x="-138.794" y="27">reader will be distracted by the</tspan><tspan x="-121.224" y="54">readable content of a page</tspan></text><text class="b" transform="translate(1466 1593)"><tspan x="-71.17" y="0">Drivers</tspan></text><g transform="translate(1404.035 1343.934)"><path d="M45.96,51.312,36.2,46.966V44.089a16.216,16.216,0,0,0,7.525-9.9h.523a6.036,6.036,0,0,0,0-12.071v-1.69L48.173,8.68a2.068,2.068,0,0,0-.483-2.072L43.667,2.583A2.078,2.078,0,0,0,42.238,2H14.071a2.078,2.078,0,0,0-1.428.583L8.619,6.607A2.068,2.068,0,0,0,8.136,8.68l3.923,11.75v1.69a6.036,6.036,0,0,0,0,12.071h.523a16.216,16.216,0,0,0,7.525,9.9v2.877l-9.758,4.346A14.083,14.083,0,0,0,2,64.168v30.38a8.048,8.048,0,0,0,8.048,8.048V120.7a2.012,2.012,0,0,0,2.012,2.012H44.25a2.012,2.012,0,0,0,2.012-2.012V102.6a8.048,8.048,0,0,0,8.048-8.048V64.168A14.083,14.083,0,0,0,45.96,51.312ZM44.25,26.143a2.012,2.012,0,0,1,0,4.024ZM12.06,30.167a2.012,2.012,0,0,1,0-4.024Zm.282-21.588L14.9,6.024H41.413l2.555,2.555-.5,1.469H12.844Zm1.831,5.493H42.138L40.79,18.1H15.52Zm25.712,8.048a6.064,6.064,0,0,1-5.694,4.024H22.119a6.064,6.064,0,0,1-5.694-4.024Zm-23.8,8.048V28.095a9.907,9.907,0,0,0,6.036,2.072H34.191a9.907,9.907,0,0,0,6.036-2.072v2.072a12.071,12.071,0,1,1-24.143,0Zm8.048,16.659V45.739a15.737,15.737,0,0,0,8.048,0v1.086l-4.024,1.348Zm.3,4.346-2.294,2.273-2.012-2.092,2.092-.925Zm9.657-.744,2.092.925L34.17,53.445l-2.294-2.273ZM10.048,98.572a4.036,4.036,0,0,1-4.024-4.024h4.024Zm32.191,20.119H30.167V102.6H26.143v16.1H14.071V96.56H42.238Zm4.024-20.119V94.548h4.024A4.036,4.036,0,0,1,46.262,98.572Zm4.024-8.048H46.262V62.357H42.238V92.536H14.071V62.357H10.048V90.524H6.024V64.168A10.078,10.078,0,0,1,12,54.974L16.224,53.1l4.446,4.607a1.952,1.952,0,0,0,1.428.624h.02a2.117,2.117,0,0,0,1.428-.583l4.607-4.627,4.607,4.627a2.117,2.117,0,0,0,1.428.583h.02a1.952,1.952,0,0,0,1.428-.624L40.086,53.1l4.225,1.871a10.078,10.078,0,0,1,5.975,9.194Z"/><rect width="20.011" height="4.447" transform="translate(70.801 102.38)"/><rect width="20.011" height="4.447" transform="translate(70.801 94.598)"/><path d="M62.071,54.036a6.036,6.036,0,1,0-6.036,6.036,6.036,6.036,0,0,0,6.036-6.036Zm-8.048,0a2.012,2.012,0,1,1,2.012,2.012A2.012,2.012,0,0,1,54.024,54.036Z" transform="translate(48.572 46.548)"/><path d="M31.629,60.071a6.036,6.036,0,0,0,0-12.071v4.024a2.012,2.012,0,1,1-1.744,3.018L26.4,57.054A6.056,6.056,0,0,0,31.629,60.071Z" transform="translate(24.693 46.548)"/><path d="M96.417,58.179a6.054,6.054,0,0,0-6.036-6.036,5.919,5.919,0,0,0-3.259.986L84.265,45.5l-1.61-6.418a4.008,4.008,0,0,0-3.9-3.038H68.25V30.012A2.012,2.012,0,0,0,66.238,28H46.119a2.012,2.012,0,0,0-2.012,2.012v6.036H34.048v4.024h44.7L79.758,44.1H34.048v4.024h46.9l4.527,12.071H49.861a8.013,8.013,0,0,0-15.532,0h-.282v4.024H88.369a2.012,2.012,0,0,1,2.012,2.012v16.1a2.012,2.012,0,0,1-2.012,2.012H26v4.024h4.024v4.024H26v4.024h4.024a4.036,4.036,0,0,0,4.024-4.024V88.357H78.31v4.024a4.036,4.036,0,0,0,4.024,4.024h8.048a4.036,4.036,0,0,0,4.024-4.024V66.226a5.919,5.919,0,0,0-.8-2.958,6,6,0,0,0,2.817-5.09ZM64.226,36.048h-16.1V32.024h16.1ZM38.635,60.191a3.982,3.982,0,0,1,6.921,0ZM90.381,92.381H82.334V88.357h6.036A6.036,6.036,0,0,0,90.381,88Zm0-32.191a1.931,1.931,0,0,1-.664-.121l-1.066-2.877a1.958,1.958,0,0,1,1.73-1.026,2.012,2.012,0,1,1,0,4.024Z" transform="translate(24.286 26.31)"/></g><g class="c" transform="translate(1352 1293)"><circle class="f" cx="113.5" cy="113.5" r="113.5"/><circle class="g" cx="113.5" cy="113.5" r="112.5"/></g><text class="a" transform="translate(960 1629)"><tspan x="-148.137" y="0">It is a long established fact that a</tspan><tspan x="-138.794" y="27">reader will be distracted by the</tspan><tspan x="-121.224" y="54">readable content of a page</tspan></text><text class="b" transform="translate(960 1593)"><tspan x="-118.216" y="0">Restaurants</tspan></text><g transform="translate(897.145 1343.288)"><g transform="translate(7.186)"><path class="d" d="M144.7,107.492,95.128,57.919,37.209,0H32.683l-.924,2.348a41.525,41.525,0,0,0-3.014,18.334A25.9,25.9,0,0,0,36,37.222L81.217,82.436l5.964-5.964,41.8,46.741a11.116,11.116,0,1,0,15.72-15.721Z" transform="translate(-28.636)"/></g><g transform="translate(0.153 71.964)"><g transform="translate(0)"><path class="d" d="M38.815,291.442,3.4,326.854a11.116,11.116,0,0,0,15.72,15.72l35.412-35.412Z" transform="translate(-0.153 -291.442)"/></g></g><g transform="translate(67.86 0.089)"><path class="d" d="M327.665,21.322,307.577,41.409l-5.24-5.24,20.087-20.088-5.24-5.24L297.1,30.928l-5.24-5.24L311.944,5.6,306.7.361l-26.2,26.2a18.5,18.5,0,0,0-5.39,11.984,10.675,10.675,0,0,1-.759,3.345l17.02,17.02a10.664,10.664,0,0,1,3.345-.759,18.491,18.491,0,0,0,11.984-5.39l26.2-26.2Z" transform="translate(-274.354 -0.361)"/></g></g><g class="c" transform="translate(847 1293)"><circle class="f" cx="113.5" cy="113.5" r="113.5"/><circle class="g" cx="113.5" cy="113.5" r="112.5"/></g><text class="a" transform="translate(455 1629)"><tspan x="-148.137" y="0">It is a long established fact that a</tspan><tspan x="-138.794" y="27">reader will be distracted by the</tspan><tspan x="-121.224" y="54">readable content of a page</tspan></text><text class="b" transform="translate(455 1593)"><tspan x="-107.294" y="0">Customers</tspan></text><g transform="translate(384 1366.691)"><path class="d" d="M165.161,76.5h-4.972a2.191,2.191,0,0,1-2.048,1.437h-10A2.191,2.191,0,0,1,146.1,76.5h-4.972A13.131,13.131,0,0,0,127.99,89.635v12.014h50.3V89.635A13.12,13.12,0,0,0,165.161,76.5Z" transform="translate(-36.023 -21.531)"/><path class="d" d="M37.163,76.5H32.191a2.191,2.191,0,0,1-2.048,1.437h-10A2.191,2.191,0,0,1,18.1,76.5H13.128A13.13,13.13,0,0,0,0,89.635v12.014H50.3V89.635A13.131,13.131,0,0,0,37.163,76.5Z" transform="translate(0 -21.531)"/><circle class="d" cx="20" cy="20" r="20" transform="translate(51.138 0.309)"/><circle class="d" cx="14" cy="14" r="14" transform="translate(11.138 23.309)"/><circle class="d" cx="14" cy="14" r="14" transform="translate(103.138 23.309)"/><path class="d" d="M103.554,63.5H96.2a2.48,2.48,0,0,1-2.45,2.156H80.043a2.475,2.475,0,0,1-2.45-2.156H70.242A14.238,14.238,0,0,0,56,77.742V97.99h61.8V77.742A14.238,14.238,0,0,0,103.554,63.5Z" transform="translate(-15.761 -17.872)"/></g><text class="e" transform="translate(960 1179)"><tspan x="-115.397" y="0">in anyway you want to</tspan></text><text class="b" transform="translate(960 1143)"><tspan x="-243.472" y="0">Get Connected With Us!</tspan></text><g class="c" transform="translate(342 1293)"><circle class="f" cx="113.5" cy="113.5" r="113.5"/><circle class="g" cx="113.5" cy="113.5" r="112.5"/></g></g></svg>