<svg xmlns="http://www.w3.org/2000/svg" width="903" height="528" viewBox="0 0 903 528"><defs><style>.a{fill:#ed1b24;}.a,.b{stroke:#707070;}.b,.g{fill:none;}.c{fill:#fff;}.c,.e{font-size:20px;}.c,.d,.e{font-family:SegoeUI-Semibold, Segoe UI;font-weight:600;letter-spacing:0.008em;}.d{font-size:25px;}.f{stroke:none;}</style></defs><g transform="translate(-229 -658)"><g class="a" transform="translate(229 658)"><path class="f" d="M5,0H195a0,0,0,0,1,0,0V51a0,0,0,0,1,0,0H5a5,5,0,0,1-5-5V5A5,5,0,0,1,5,0Z"/><path class="g" d="M5,.5H194a.5.5,0,0,1,.5.5V50a.5.5,0,0,1-.5.5H5A4.5,4.5,0,0,1,.5,46V5A4.5,4.5,0,0,1,5,.5Z"/></g><g class="b" transform="translate(423 659)"><path class="f" d="M0,0H190a5,5,0,0,1,5,5V45a5,5,0,0,1-5,5H0a0,0,0,0,1,0,0V0A0,0,0,0,1,0,0Z"/><path class="g" d="M1,.5H190A4.5,4.5,0,0,1,194.5,5V45a4.5,4.5,0,0,1-4.5,4.5H1A.5.5,0,0,1,.5,49V1A.5.5,0,0,1,1,.5Z"/></g><text class="c" transform="translate(327 692)"><tspan x="-52.67" y="0">Description</tspan></text><text class="d" transform="translate(521 691)"><tspan x="-45.784" y="0">Reviews</tspan></text><text class="e" transform="translate(235 777)"><tspan x="0" y="22">Lorem ipsumLorem ipsumLorem ipsumLorem ipsumLorem ipsumLorem ipsumLorem ipsumLorem </tspan><tspan x="0" y="49">ipsumLorem ipsumLorem ipsumLorem ipsumLorem ipsumLorem ipsumLorem ipsumLorem </tspan><tspan x="0" y="76">ipsumLorem ipsumLorem ipsumLorem ipsumLorem ipsumLorem ipsumLorem ipsumLorem </tspan><tspan x="0" y="103">ipsumLorem ipsumLorem ipsumLorem ipsumLorem ipsumLorem ipsumLorem ipsumLorem </tspan><tspan x="0" y="130">ipsumLorem ipsumLorem ipsumLorem ipsumLorem ipsumLorem ipsumLorem ipsumLorem </tspan><tspan x="0" y="157">ipsumLorem ipsumLorem ipsumLorem ipsumLorem ipsumLorem ipsumLorem ipsumLorem </tspan><tspan x="0" y="184">ipsumLorem ipsumLorem ipsum.</tspan><tspan x="0" y="211"></tspan><tspan x="0" y="238">Lorem ipsumLorem ipsumLorem ipsumLorem ipsumLorem ipsumLorem ipsumLorem ipsumLorem </tspan><tspan x="0" y="265">ipsumLorem ipsumLorem ipsumLorem ipsumLorem ipsumLorem ipsumLorem ipsumLorem </tspan><tspan x="0" y="292">ipsumLorem ipsumLorem ipsumLorem ipsumLorem ipsumLorem ipsumLorem ipsumLorem </tspan><tspan x="0" y="319">ipsumLorem ipsumLorem ipsumLorem ipsumLorem ipsumLorem ipsumLorem ipsumLorem </tspan><tspan x="0" y="346">ipsumLorem ipsumLorem ipsumLorem ipsumLorem ipsumLorem ipsumLorem ipsumLorem </tspan><tspan x="0" y="373">ipsumLorem ipsumLorem ipsumLorem ipsumLorem ipsumLorem ipsumLorem ipsumLorem </tspan><tspan x="0" y="400">ipsum.</tspan></text></g></svg>